<?xml version="1.0" standalone="no"?><svg xmlns="http://www.w3.org/2000/svg" viewBox="0 0 1440 320"><path fill="#343a40" fill-opacity="1" d="M0,160L40,165.3C80,171,160,181,240,165.3C320,149,400,107,480,106.7C560,107,640,149,720,192C800,235,880,277,960,277.3C1040,277,1120,235,1200,218.7C1280,203,1360,213,1400,218.7L1440,224L1440,320L1400,320C1360,320,1280,320,1200,320C1120,320,1040,320,960,320C880,320,800,320,720,320C640,320,560,320,480,320C400,320,320,320,240,320C160,320,80,320,40,320L0,320Z"></path></svg>