<svg enable-background="new 0 0 110 110" height="512" viewBox="0 0 110 110" width="512" xmlns="http://www.w3.org/2000/svg"><path d="m92.5215302 35.5950966-1.8693696-3.2376137-33.6083602 19.4074173v-38.8047914h-3.7387238v38.7997675l-33.6001492-19.4023934-1.8693618 3.2376137 33.6049404 19.4051323-33.6049404 19.4055862 1.8693618 3.2376175 33.6001492-19.4028549v38.7993164h3.7387238v-38.8038788l33.6083602 19.4074173 1.8693696-3.2376175-33.6049424-19.4055862z" fill="#467082"/><path d="m31.9438705 41.585701v26.8291168l23.2346764 13.4144287v-53.6582393z" fill="#4894cb"/><path d="m55.1785469 28.1710072v53.6582393l23.2347145-13.4144287v-26.8291168z" fill="#4da0dc"/><path d="m55.1785355 28.1710072-23.2346783 13.4146938 23.2346783 13.4144287 23.2347107-13.4144287z" fill="#4288b9"/><path d="m55.1744385 99.1984863-38.2735539-22.0946197v-44.2070465l38.2735519-22.0950813 38.2817688 22.0949669v44.2072753zm-34.5348301-24.253334 34.5348282 19.9363708 34.543045-19.9364853v-39.8893928l-34.543045-19.9369392-34.5348282 19.9368247z" fill="#c6c5ca"/><g fill="#ededed"><circle cx="55.179" cy="12.96" r="7.914"/><circle cx="91.101" cy="33.969" r="7.914"/><circle cx="91.101" cy="76.107" r="7.914"/><circle cx="18.899" cy="33.969" r="7.914"/><circle cx="18.899" cy="76.107" r="7.914"/><circle cx="55.179" cy="97.04" r="7.914"/></g></svg>