<?xml version="1.0" encoding="iso-8859-1"?>
<!-- Generator: Adobe Illustrator 19.0.0, SVG Export Plug-In . SVG Version: 6.00 Build 0)  -->
<svg version="1.1" id="Layer_1" xmlns="http://www.w3.org/2000/svg" xmlns:xlink="http://www.w3.org/1999/xlink" x="0px" y="0px"
	 viewBox="0 0 491.5 491.5" style="enable-background:new 0 0 491.5 491.5;" xml:space="preserve">
<circle style="fill:#27A2DB;" cx="228.844" cy="228.844" r="221.747"/>
<path style="fill:#2D93BA;" d="M228.842,0C102.658,0,0,102.658,0,228.842s102.658,228.842,228.842,228.842
	s228.842-102.658,228.842-228.842S355.026,0,228.842,0z M20.091,238.639h75.598c0.736,31.418,4.999,61.001,12.142,87.675H43.832
	C29.866,299.914,21.56,270.169,20.091,238.639z M238.639,111.775V20.508c35.071,5.545,65.662,40.384,84.393,91.267
	C323.032,111.775,238.639,111.775,238.639,111.775z M329.371,131.37c7.588,26.4,12.1,56.145,12.899,87.675H238.639V131.37H329.371z
	 M219.045,20.508v91.267h-84.393C153.383,60.892,183.973,26.053,219.045,20.508z M219.045,131.37v87.675H115.413
	c0.799-31.53,5.311-61.275,12.899-87.675H219.045z M95.689,219.045H20.091c1.469-31.53,9.775-61.275,23.741-87.675h63.999
	C100.688,158.043,96.425,187.627,95.689,219.045z M115.413,238.639h103.631v87.675h-90.732
	C120.724,299.914,116.212,270.169,115.413,238.639z M219.045,345.909v91.267c-35.071-5.545-65.662-40.384-84.393-91.267H219.045z
	 M238.639,437.176v-91.267h84.393C304.301,396.792,273.711,431.63,238.639,437.176z M238.639,326.314v-87.675H342.27
	c-0.799,31.53-5.311,61.275-12.899,87.675H238.639z M361.995,238.639h75.599c-1.47,31.53-9.776,61.275-23.742,87.675h-63.999
	C356.995,299.64,361.258,270.057,361.995,238.639z M361.995,219.045c-0.736-31.418-4.999-61.001-12.142-87.675h63.999
	c13.966,26.4,22.272,56.145,23.742,87.675H361.995z M402.188,111.775h-58.275c-11.367-33.38-27.523-61.094-46.976-80.58
	C340.11,46.117,377.007,74.606,402.188,111.775z M160.746,31.195c-19.453,19.486-35.609,47.199-46.975,80.58H55.495
	C80.677,74.606,117.573,46.117,160.746,31.195z M55.495,345.909h58.276c11.366,33.38,27.522,61.094,46.975,80.58
	C117.573,411.567,80.677,383.077,55.495,345.909z M296.938,426.488c19.453-19.486,35.609-47.199,46.976-80.58h58.275
	C377.007,383.077,340.11,411.567,296.938,426.488z"/>
<circle style="fill:#EBF0F3;" cx="368.363" cy="368.364" r="123.136"/>
<path style="fill:#E56353;" d="M327.675,295.094c-26.86,0-48.635,21.774-48.635,48.635c0,34.39,89.322,116.556,89.322,116.556
	V317.128C359.676,303.867,344.709,295.094,327.675,295.094z"/>
<path style="fill:#D15241;" d="M409.049,295.094c-17.034,0-32.001,8.773-40.687,22.034v143.157c0,0,89.322-79.859,89.322-116.556
	C457.684,316.869,435.909,295.094,409.049,295.094z"/>
<g>
</g>
<g>
</g>
<g>
</g>
<g>
</g>
<g>
</g>
<g>
</g>
<g>
</g>
<g>
</g>
<g>
</g>
<g>
</g>
<g>
</g>
<g>
</g>
<g>
</g>
<g>
</g>
<g>
</g>
</svg>
