<?xml version="1.0" encoding="iso-8859-1"?>
<!-- Generator: Adobe Illustrator 19.0.0, SVG Export Plug-In . SVG Version: 6.00 Build 0)  -->
<svg version="1.1" id="Layer_1" xmlns="http://www.w3.org/2000/svg" xmlns:xlink="http://www.w3.org/1999/xlink" x="0px" y="0px"
	 viewBox="0 0 491.52 491.52" style="enable-background:new 0 0 491.52 491.52;" xml:space="preserve">
<g>
	<path style="fill:#3A556A;" d="M88.852,472.405c-2.593,6.934,0.934,14.657,7.863,17.25c1.553,0.576,3.133,0.851,4.695,0.851
		c5.428,0,10.542-3.33,12.558-8.719l42.914-114.868h-28.621L88.852,472.405z"/>
	<path style="fill:#3A556A;" d="M377.551,481.787c2.016,5.389,7.13,8.719,12.558,8.719c1.562,0,3.142-0.275,4.695-0.851
		c6.93-2.593,10.456-10.316,7.863-17.25l-39.41-105.486h-28.621L377.551,481.787z"/>
</g>
<path style="fill:#64798A;" d="M477.031,1.014H14.487C6.486,1.014,0,7.501,0,15.502V334.56c0,8.001,6.486,14.487,14.487,14.487
	h462.544c8.003,0,14.489-6.486,14.489-14.487V15.502C491.52,7.501,485.034,1.014,477.031,1.014z"/>
<g>
	<polygon style="fill:#2F4859;" points="128.263,366.919 156.883,366.919 163.56,349.047 134.939,349.047 	"/>
	<polygon style="fill:#2F4859;" points="334.637,366.919 363.257,366.919 356.581,349.047 327.96,349.047 	"/>
</g>
<rect x="35.748" y="36.762" style="fill:#E1E6E9;" width="420.045" height="276.531"/>
<rect x="35.748" y="299.162" style="fill:#D5D6DB;" width="420.045" height="14.147"/>
<polygon style="fill:#64798A;" points="284.415,245.89 190.823,156.165 88.88,234.959 77.953,220.82 192.081,132.609 
	284.502,221.209 401.971,110.019 414.259,122.996 "/>
<circle style="fill:#27A2DB;" cx="83.415" cy="227.886" r="22.18"/>
<path style="fill:#2D93BA;" d="M93.933,208.472c1.709,3.144,2.767,6.692,2.767,10.521c0,12.25-9.93,22.181-22.18,22.181
	c-3.829,0-7.377-1.059-10.521-2.767c3.757,6.913,10.994,11.662,19.414,11.662c12.25,0,22.183-9.931,22.183-22.182
	C105.595,219.466,100.847,212.229,93.933,208.472z"/>
<circle style="fill:#FCD462;" cx="191.437" cy="144.384" r="22.18"/>
<circle style="fill:#E56353;" cx="284.467" cy="233.549" r="22.18"/>
<circle style="fill:#3A556A;" cx="408.115" cy="116.511" r="22.18"/>
<path style="fill:#D15241;" d="M294.981,214.136c1.709,3.144,2.767,6.692,2.767,10.522c0,12.25-9.93,22.18-22.18,22.18
	c-3.829,0-7.377-1.059-10.521-2.767c3.757,6.913,10.994,11.662,19.414,11.662c12.25,0,22.183-9.931,22.183-22.182
	C306.643,225.13,301.895,217.893,294.981,214.136z"/>
<path style="fill:#F6C358;" d="M201.973,124.974c1.709,3.143,2.767,6.692,2.767,10.521c0,12.25-9.93,22.181-22.18,22.181
	c-3.829,0-7.377-1.059-10.521-2.767c3.757,6.913,10.995,11.661,19.414,11.661c12.25,0,22.183-9.931,22.183-22.181
	C213.635,135.967,208.887,128.73,201.973,124.974z"/>
<path style="fill:#2F4859;" d="M418.63,97.094c1.709,3.143,2.767,6.692,2.767,10.521c0,12.25-9.93,22.181-22.18,22.181
	c-3.829,0-7.377-1.059-10.521-2.767c3.757,6.913,10.994,11.661,19.414,11.661c12.25,0,22.182-9.93,22.182-22.181
	C430.292,108.088,425.545,100.85,418.63,97.094z"/>
<g>
</g>
<g>
</g>
<g>
</g>
<g>
</g>
<g>
</g>
<g>
</g>
<g>
</g>
<g>
</g>
<g>
</g>
<g>
</g>
<g>
</g>
<g>
</g>
<g>
</g>
<g>
</g>
<g>
</g>
</svg>
